ply
format ascii 1.0
element vertex 40
property float x
property float y
property float z
element edge 39
property int vertex1
property int vertex2
end_header
19.112400 -25.126316 7.885328
19.112400 -25.126316 32.885328
19.112400 -25.126316 7.885328
-16.144712 -27.188219 7.885328
-16.144712 -27.188219 32.885328
-16.144712 -27.188219 7.885328
-16.144712 -27.188219 7.885328
19.112400 -25.126316 7.885328
18.636223 -16.856501 9.065522
-16.619851 -18.936081 9.065522
-16.619851 -18.936081 9.065522
18.636223 -16.856501 9.065522
18.160588 -8.597340 9.453015
-17.095795 -10.671666 9.453015
-17.095795 -10.671666 9.453015
18.160588 -8.597340 9.453015
17.687881 -0.344522 9.788991
-17.569651 -2.399242 9.788991
-17.569651 -2.399242 9.788991
17.687881 -0.344522 9.788991
17.687881 -0.344522 9.788991
-17.569651 -2.399242 9.788991
-17.569651 -2.399242 9.788991
17.687881 -0.344522 9.788991
17.222285 7.900422 9.550350
-18.037380 5.882632 9.550350
-18.037380 5.882632 9.550350
17.222285 7.900422 9.550350
16.767383 16.145132 9.198643
-18.494395 14.164624 9.198643
-18.494395 14.164624 9.198643
16.767383 16.145132 9.198643
16.317903 24.414605 7.970838
-18.942945 22.417616 7.970838
-18.942945 22.417616 7.970838
-18.942945 22.417616 32.970838
-18.942945 22.417616 7.970838
16.317903 24.414605 7.970838
16.317903 24.414605 32.970838
16.317903 24.414605 7.970838
0 1
1 2
2 3
3 4
4 5
5 6
6 7
7 8
8 9
9 10
10 11
11 12
12 13
13 14
14 15
15 16
16 17
17 18
18 19
19 20
20 21
21 22
22 23
23 24
24 25
25 26
26 27
27 28
28 29
29 30
30 31
31 32
32 33
33 34
34 35
35 36
36 37
37 38
38 39
