ply
format ascii 1.0
element vertex 24
property float x
property float y
property float z
element edge 23
property int vertex1
property int vertex2
end_header
15.317815 42.388546 7.784396
15.317815 42.388546 32.784396
15.317815 42.388546 7.784396
-19.941341 40.361891 7.784396
-19.941341 40.361891 32.784396
-19.941341 40.361891 7.784396
-19.941341 40.361891 7.784396
15.317815 42.388546 7.784396
14.941883 48.951004 7.531768
-20.314374 46.874517 7.531768
-20.314374 46.874517 7.531768
14.941883 48.951004 7.531768
14.941883 48.951004 7.531768
-20.314374 46.874517 7.531768
-20.314374 46.874517 7.531768
14.941883 48.951004 7.531768
14.564386 55.492178 7.279932
-20.691426 53.408168 7.279932
-20.691426 53.408168 7.279932
-20.691426 53.408168 32.279932
-20.691426 53.408168 7.279932
14.564386 55.492178 7.279932
14.564386 55.492178 32.279932
14.564386 55.492178 7.279932
0 1
1 2
2 3
3 4
4 5
5 6
6 7
7 8
8 9
9 10
10 11
11 12
12 13
13 14
14 15
15 16
16 17
17 18
18 19
19 20
20 21
21 22
22 23
