ply
format ascii 1.0
element vertex 33
property float x
property float y
property float z
element edge 32
property int vertex1
property int vertex2
end_header
-17.871128 -67.927727 32.000000
-19.966190 -30.412490 32.000000
-19.986297 -30.061865 28.318482
-22.887190 21.282070 28.502969
-22.906214 21.632367 32.000000
-25.267984 63.237398 32.000000
-22.906214 21.632367 32.000000
-22.887190 21.282070 28.502969
-19.986297 -30.061865 28.318482
-19.966190 -30.412490 32.000000
-17.871128 -67.927727 32.000000
-13.877120 -67.708864 32.000000
-15.972749 -30.183526 32.000000
-15.992860 -29.832827 24.318482
-18.912101 21.849297 24.491315
-18.931129 22.199659 32.000000
-21.274702 63.469136 32.000000
-18.931129 22.199659 32.000000
-18.912101 21.849297 24.491315
-15.992860 -29.832827 24.318482
-15.972749 -30.183526 32.000000
-13.877120 -67.708864 32.000000
-12.878618 -67.654149 32.000000
-14.974388 -30.126286 32.000000
-14.994500 -29.775568 10.318482
-17.913572 21.903529 10.491315
-17.932601 22.253908 32.000000
-20.276382 63.527071 32.000000
-17.932601 22.253908 32.000000
-17.913572 21.903529 10.491315
-14.994500 -29.775568 10.318482
-14.974388 -30.126286 32.000000
-12.878618 -67.654149 32.000000
0 1
1 2
2 3
3 4
4 5
5 6
6 7
7 8
8 9
9 10
10 11
11 12
12 13
13 14
14 15
15 16
16 17
17 18
18 19
19 20
20 21
21 22
22 23
23 24
24 25
25 26
26 27
27 28
28 29
29 30
30 31
31 32
