ply
format ascii 1.0
element vertex 24
property float x
property float y
property float z
element edge 23
property int vertex1
property int vertex2
end_header
20.834802 -55.712843 7.337026
20.834802 -55.712843 32.337026
20.834802 -55.712843 7.337026
-14.419806 -57.822649 7.337026
-14.419806 -57.822649 32.337026
-14.419806 -57.822649 7.337026
-14.419806 -57.822649 7.337026
20.834802 -55.712843 7.337026
20.484905 -49.385035 7.602633
-14.769183 -51.503508 7.602633
-14.769183 -51.503508 7.602633
20.484905 -49.385035 7.602633
20.484905 -49.385035 7.602633
-14.769183 -51.503508 7.602633
-14.769183 -51.503508 7.602633
20.484905 -49.385035 7.602633
20.131005 -43.042602 7.844880
-15.120878 -45.197470 7.844880
-15.120878 -45.197470 7.844880
-15.120878 -45.197470 32.844880
-15.120878 -45.197470 7.844880
20.131005 -43.042602 7.844880
20.131005 -43.042602 32.844880
20.131005 -43.042602 7.844880
0 1
1 2
2 3
3 4
4 5
5 6
6 7
7 8
8 9
9 10
10 11
11 12
12 13
13 14
14 15
15 16
16 17
17 18
18 19
19 20
20 21
21 22
22 23
