ply
format ascii 1.0
element vertex 16
property float x
property float y
property float z
element face 12
property list uchar int vertex_indices
end_header
-58.223290 -3.007606 0.000000
-58.894204 -3.749141 0.000000
-43.128387 -18.013480 0.000000
-42.457473 -17.271945 0.000000
-58.223290 -3.007606 5.000000
-58.894204 -3.749141 5.000000
-43.128387 -18.013480 5.000000
-42.457473 -17.271945 5.000000
30.419873 8.473647 0.000000
29.828068 7.667567 0.000000
37.241755 2.224612 0.000000
37.833561 3.030693 0.000000
30.419873 8.473647 5.000000
29.828068 7.667567 5.000000
37.241755 2.224612 5.000000
37.833561 3.030693 5.000000
4 0 3 2 1
4 4 5 6 7
4 0 1 5 4
4 1 2 6 5
4 2 3 7 6
4 3 0 4 7
4 8 11 10 9
4 12 13 14 15
4 8 9 13 12
4 9 10 14 13
4 10 11 15 14
4 11 8 12 15
