ply
format ascii 1.0
element vertex 8
property float x
property float y
property float z
element face 12
property list uchar int vertex_indices
end_header
-27.769068 -71.940937 0.000000
-103.906459 -54.687917 0.000000
-83.653163 111.838261 0.000000
13.487646 62.706097 0.000000
-27.769068 -71.940937 25.000000
-103.906459 -54.687917 25.000000
-83.653163 111.838261 25.000000
13.487646 62.706097 25.000000
3 0 1 2
3 0 2 3
3 4 6 5
3 4 7 6
3 0 1 4
3 1 5 4
3 1 2 5
3 2 6 5
3 2 3 6
3 3 7 6
3 3 0 7
3 0 4 7
