ply
format ascii 1.0
element vertex 16
property float x
property float y
property float z
element face 12
property list uchar int vertex_indices
end_header
11.093440 -34.053479 0.000000
11.032088 -33.055363 0.000000
-7.451302 -34.191491 0.000000
-7.389950 -35.189607 0.000000
11.093440 -34.053479 13.388420
11.032088 -33.055363 13.388420
-7.451302 -34.191491 13.388420
-7.389950 -35.189607 13.388420
7.585421 31.440567 0.000000
7.531833 32.439130 0.000000
-11.031140 31.442934 0.000000
-10.977551 30.444371 0.000000
7.585421 31.440567 13.390929
7.531833 32.439130 13.390929
-11.031140 31.442934 13.390929
-10.977551 30.444371 13.390929
4 0 3 2 1
4 4 5 6 7
4 0 1 5 4
4 1 2 6 5
4 2 3 7 6
4 3 0 4 7
4 8 11 10 9
4 12 13 14 15
4 8 9 13 12
4 9 10 14 13
4 10 11 15 14
4 11 8 12 15
